<svg width="25" height="21" viewBox="0 0 25 21" fill="none" xmlns="http://www.w3.org/2000/svg">
<path fill-rule="evenodd" clip-rule="evenodd" d="M13.6052 1.10685C12.3602 0.558704 11.007 0.299947 9.64751 0.350036C8.28802 0.400125 6.95758 0.757756 5.7562 1.39604C4.55483 2.03433 3.51378 2.93666 2.71133 4.0352C1.90888 5.13374 1.36591 6.3999 1.12323 7.73849C0.880558 9.07708 0.944498 10.4533 1.31024 11.7636C1.67599 13.0739 2.33403 14.2843 3.23488 15.3037C3.6006 15.7175 4.23256 15.7565 4.64641 15.3908C5.06025 15.0251 5.09927 14.3931 4.73355 13.9793C4.03288 13.1864 3.52108 12.245 3.23661 11.2259C2.95214 10.2067 2.90241 9.13638 3.09115 8.09525C3.2799 7.05413 3.70221 6.06934 4.32634 5.21492C4.95047 4.3605 5.76017 3.65868 6.69458 3.16224C7.62898 2.6658 8.66377 2.38764 9.72115 2.34868C10.7785 2.30972 11.831 2.51098 12.7994 2.93731C13.7678 3.36365 14.6269 4.00398 15.3123 4.81015C15.9976 5.61633 16.4912 6.56737 16.756 7.59178C16.8702 8.03315 17.2683 8.34148 17.7242 8.34148H18.9836C19.8722 8.34206 20.7354 8.63858 21.4369 9.18423C22.1383 9.72988 22.6381 10.4936 22.8573 11.3548C23.0765 12.2161 23.0027 13.1258 22.6475 13.9404C22.2922 14.755 21.6758 15.4281 20.8956 15.8535C20.4106 16.1178 20.2319 16.7252 20.4962 17.2101C20.7606 17.695 21.368 17.8738 21.8529 17.6095C23.0233 16.9714 23.9479 15.9617 24.4807 14.7398C25.0136 13.5179 25.1243 12.1534 24.7955 10.8615C24.4667 9.56966 23.7171 8.42409 22.6649 7.60561C21.6127 6.78713 20.3179 6.34236 18.9849 6.34148H18.9842H18.4633C18.0983 5.31007 17.5475 4.35171 16.8361 3.51479C15.955 2.47828 14.8503 1.655 13.6052 1.10685ZM12.2771 9.63437C12.373 9.53849 12.4835 9.46616 12.6015 9.41736L13.6914 9.63437L13.6918 9.63477L17.6914 13.6344C18.0819 14.0249 18.0819 14.6581 17.6914 15.0486C17.3008 15.4391 16.6677 15.4391 16.2771 15.0486L13.9843 12.7557V19.3415C13.9843 19.8938 13.5365 20.3415 12.9843 20.3415C12.432 20.3415 11.9843 19.8938 11.9843 19.3415V12.7557L9.69136 15.0486C9.30084 15.4391 8.66767 15.4391 8.27715 15.0486C7.88662 14.6581 7.88662 14.0249 8.27715 13.6344L12.2771 9.63437ZM12.6015 9.41736L13.6892 9.63225C13.5084 9.45253 13.2593 9.34148 12.9843 9.34148C12.8487 9.34148 12.7194 9.36846 12.6015 9.41736Z" fill="#3C4953"/>
</svg>
